<?xml version="1.0" encoding="UTF-8"?>
<svg id="Layer_2" data-name="Layer 2" xmlns="http://www.w3.org/2000/svg" viewBox="0 0 457.73 91.81">
  <defs>
    <style>
      .cls-1 {
        fill: #fff;
        font-family: 'Bahnschrift_636.000wght', Bahnschrift;
        font-size: 10px;
        font-variation-settings: 'wght' 636, 'wdth' 100;
      }

      .cls-2 {
        fill: none;
        stroke: #fff;
        stroke-miterlimit: 10;
        stroke-width: 19.85px;
      }
    </style>
  </defs>
  <g id="Layer_1-2" data-name="Layer 1">
    <g>
      <path class="cls-2" d="m447.8,1.32v66.76"/>
      <path class="cls-2" d="m181.54,57.65h69.04c6.19,0,12.13-2.46,16.51-6.84l8.91-8.91"/>
      <path class="cls-2" d="m268.6,57.65h29.76c6.19,0,12.13-2.46,16.51-6.84l8.91-8.91"/>
      <path class="cls-2" d="m317.38,57.65h73.43c6.19,0,12.13-2.46,16.51-6.84l8.91-8.91"/>
      <line class="cls-2" x1="191.24" y1="71.51" x2="191.24" y2="91.36"/>
      <line class="cls-2" x1="215.93" y1="71.51" x2="215.93" y2="91.36"/>
      <line class="cls-2" x1="240.62" y1="71.51" x2="240.62" y2="91.36"/>
      <line class="cls-2" x1="297.58" y1="1.32" x2="297.58" y2="21.54"/>
      <path class="cls-2" d="m66.88,11.18c-5.27,0-10.31,2.09-14.04,5.81l-18.1,18.1-17.43,17.43c-10.84,10.84-3.16,29.36,12.16,29.36h20.25"/>
      <path class="cls-2" d="m107.97,1.28v33.01h23.36c10.96,0,19.85,8.89,19.85,19.85v3.5h-50.39l-2.44.18c-5.27,0-10.31,2.09-14.04,5.81l-12.29,12.29c-3.72,3.72-8.77,5.81-14.04,5.81h-3.72"/>
      <line class="cls-2" x1="75.15" y1="11.18" x2="15.43" y2="11.18"/>
      <text class="cls-1" transform="translate(.17 8.55)"><tspan x="0" y="0">TM</tspan></text>
    </g>
  </g>
</svg>